<?xml version="1.0" encoding="utf-8"?>
<!-- Generator: Adobe Illustrator 24.1.2, SVG Export Plug-In . SVG Version: 6.00 Build 0)  -->
<svg version="1.1" id="Layer_1" xmlns="http://www.w3.org/2000/svg" xmlns:xlink="http://www.w3.org/1999/xlink" x="0px" y="0px"
	 viewBox="0 0 512 512" style="enable-background:new 0 0 512 512;" xml:space="preserve">
<style type="text/css">
	.st0{fill:#AAA9A9;}
</style>
<path class="st0" d="M216.3,158.4H137C97,147.9,6.5,150.6,6.5,233.2c0,30.1,15,51.2,35,61c-25.1,23-37,33.9-37,49.2
	c0,11,4.5,21.1,17.9,26.8C8.1,383.6,0,393.4,0,411.6c0,32.1,28,50.8,101.6,50.8c70.8,0,111.8-26.4,111.8-73.2
	c0-58.7-45.2-56.5-151.6-63l13.4-21.5c27.3,7.6,118.7,10,118.7-67.9c0-18.7-7.7-31.7-15-41.1l37.4-2.8L216.3,158.4z M152.9,400.3
	c0,32.1-104.9,32.1-104.9,2.4c0-8.1,5.3-15,10.6-21.5C136.3,386.5,152.9,384.5,152.9,400.3z M102.1,265.7
	c-52.8,0-50.5-71.2,1.2-71.2C152.8,194.5,154.1,265.7,102.1,265.7z M235.4,366.2v-32.1c26.7-3.7,27.2-2,27.2-11V203.6
	c0-8.5-2-7.4-27.2-16.3l4.5-32.9H324v168.7c0,6.5,0.4,7.3,6.5,8.1l20.7,2.8v32.1L235.4,366.2z M287.8,121.9
	c-23.2,0-36.6-13.4-36.6-36.6s13.4-35.8,36.6-35.8c23.6,0,37,12.6,37,35.8S311.4,121.9,287.8,121.9z M512,350.5
	c-17.5,8.5-43.1,16.3-66.3,16.3c-48.4,0-66.7-19.5-66.7-65.5V194.8c0-5.4,1-4.1-31.7-4.1v-36.2c35.8-4.1,50-22,54.5-66.3h38.6
	c0,65.8-1.3,61.8,3.3,61.8H501v40.6h-60.6v97.1c0,6.9-4.9,51.4,60.6,26.8L512,350.5z"/>
</svg>
